# xmcd
# Track frame offsets:
# 150
# 16879
# 30619
# 46747
# 61439
# 77782
# 92009
# 111191
# 122942
# 140849
# 152084
# 171109
# 187281
# 199260
# 214169
# 228639
# 247589
# 260936
# 280853
# 302168
# 317342
#
# Disc length: 4606 seconds
# Revision: 0
# Processed by: cddbd v1.4PL0 Copyright (c) Steve Scherf et al.
# Submitted via: VisiTrax 2.9.3.171 - For more info visit www.synapsa.com
#
DISCID=3011fc15
DTITLE=Jools Holland, his Rhythm and Blues Orchestra and Friends - More Friends
DYEAR=1900
DGENRE=
TTITLE0=Together we are strong
TTITLE1=In the dark
TTITLE2=Snowflake boogie
TTITLE3=The only face
TTITLE4=What goes around
TTITLE5=Don't you kiss my cheek
TTITLE6=Out of this world
TTITLE7=Rock me
TTITLE8=First time ever I saw your face
TTITLE9=Fly me to the moon
TTITLE10=Yours truly, Confused N10
TTITLE11=Tuxedo Junction
TTITLE12=Let the boogie woogie roll
TTITLE13=Drown in my own tears
TTITLE14=Count me in
TTITLE15=You got to serve somebody
TTITLE16=Anglegrinder blues
TTITLE17=Change is gonna come
TTITLE18=Teardrops from my eyes
TTITLE19=Dreams
TTITLE20=If you wear that velvet dress
EXTD=
EXTT0=
EXTT1=
EXTT2=
EXTT3=
EXTT4=
EXTT5=
EXTT6=
EXTT7=
EXTT8=
EXTT9=
EXTT10=
EXTT11=
EXTT12=
EXTT13=
EXTT14=
EXTT15=
EXTT16=
EXTT17=
EXTT18=
EXTT19=
EXTT20=
PLAYORDER=
